<?xml version="1.0" encoding="UTF-8" standalone="no"?>
<!-- Created with Inkscape (http://www.inkscape.org/) -->

<svg
   xmlns:dc="http://purl.org/dc/elements/1.1/"
   xmlns:cc="http://creativecommons.org/ns#"
   xmlns:rdf="http://www.w3.org/1999/02/22-rdf-syntax-ns#"
   xmlns:svg="http://www.w3.org/2000/svg"
   xmlns="http://www.w3.org/2000/svg"
   xmlns:sodipodi="http://sodipodi.sourceforge.net/DTD/sodipodi-0.dtd"
   xmlns:inkscape="http://www.inkscape.org/namespaces/inkscape"
   width="210mm"
   height="297mm"
   viewBox="0 0 744.09448819 1052.3622047"
   id="svg2"
   version="1.1"
   inkscape:version="0.91 r13725"
   sodipodi:docname="anita.svg">
  <defs
     id="defs4" />
  <sodipodi:namedview
     id="base"
     pagecolor="#ffffff"
     bordercolor="#666666"
     borderopacity="1.0"
     inkscape:pageopacity="0.0"
     inkscape:pageshadow="2"
     inkscape:zoom="0.35"
     inkscape:cx="322.046"
     inkscape:cy="497.4064"
     inkscape:document-units="px"
     inkscape:current-layer="layer1"
     showgrid="false"
     inkscape:window-width="1366"
     inkscape:window-height="703"
     inkscape:window-x="0"
     inkscape:window-y="0"
     inkscape:window-maximized="1" />
  <metadata
     id="metadata7">
    <rdf:RDF>
      <cc:Work
         rdf:about="">
        <dc:format>image/svg+xml</dc:format>
        <dc:type
           rdf:resource="http://purl.org/dc/dcmitype/StillImage" />
        <dc:title></dc:title>
      </cc:Work>
    </rdf:RDF>
  </metadata>
  <g
     inkscape:label="Livello 1"
     inkscape:groupmode="layer"
     id="layer1">
    <g
       id="g3364"
       transform="translate(688.57143,417.14286)">
      <path
         style="fill:#c6a252"
         d="m -518.57147,549.48721 c 0,-8.34722 0.52751,-13.40251 1.5,-14.375 0.825,-0.825 4.62188,-1.50703 8.4375,-1.5156 6.86972,-0.0155 7.02299,-0.0985 15.6875,-8.50509 5.29964,-5.14185 12.4306,-10.43446 18.08388,-13.4219 5.13363,-2.71282 11.64361,-7.27239 14.46662,-10.13236 5.66415,-5.73833 16.29758,-12.92505 19.1238,-12.92505 2.83133,0 22.79407,-12.30545 28.13174,-17.34099 4.9609,-4.68011 21.35935,-28.12983 23.37066,-33.41999 0.62503,-1.64396 1.95328,-2.98902 2.95164,-2.98902 2.10819,0 6.99666,-5.79145 6.99666,-8.28905 0,-0.93605 -2.7062,-5.50081 -6.01377,-10.14393 -8.55784,-12.01333 -23.02734,-40.26617 -28.65034,-55.94202 -1.72626,-4.8125 -3.95068,-10.33932 -4.94316,-12.28185 -1.61716,-3.16515 -4.45342,-15.77669 -4.26583,-18.96815 1.35825,-23.10869 1.23,-26.89955 -1.14347,-33.79816 -2.15779,-6.27174 -2.29261,-8.2028 -1.10643,-15.8479 1.24887,-8.04919 1.16307,-8.88079 -1.13736,-11.02397 -4.96791,-4.62831 -6.5733,-27.43347 -3.04147,-43.20545 2.14255,-9.56797 12.35336,-27.0515 22.37724,-38.31562 2.29603,-2.58011 4.17459,-5.40339 4.17459,-6.27397 0,-0.87058 3.51563,-3.49417 7.8125,-5.83021 4.29688,-2.33604 10.0625,-5.71745 12.8125,-7.51425 2.75,-1.7968 6.6875,-4.08537 8.75,-5.08572 2.0625,-1.00035 5.15625,-2.79639 6.875,-3.9912 5.2441,-3.64549 31.27431,-9.49781 47.00278,-10.56752 23.91647,-1.62659 58.08823,8.01542 77.24931,21.79691 10.89607,7.83693 20.83129,20.21577 28.87124,35.97229 6.15005,12.05274 8.70707,20.02155 10.00655,31.18477 1.06858,9.17973 1.87812,10.75205 9.41789,18.29183 3.28432,3.28431 6.72092,8.10598 7.63688,10.71482 2.40348,6.84557 2.08564,23.76965 -0.53911,28.7066 -2.06416,3.88251 -2.02473,4.13712 1.93619,12.5 3.57102,7.53967 4.04327,9.77773 4.04327,19.16175 0,12.75946 -2.6456,20.65759 -9.39635,28.05169 -2.54754,2.79032 -5.3605,7.31741 -6.25101,10.0602 -2.31883,7.14192 -13.14669,17.32905 -21.29602,20.03582 -6.00391,1.99418 -7.76012,2.02526 -19.30662,0.34179 -2.12319,-0.30956 -2.46755,0.29076 -2.2847,3.98294 0.18889,3.81417 2.02225,6.07572 14.9466,18.4375 8.10221,7.74953 15.19693,14.09006 15.76602,14.09006 1.09252,0 18.93223,12.9265 28.44708,20.61251 6.24884,5.04775 29.56632,20.55025 32.5,21.60745 1.03125,0.37163 4.48161,2.55542 7.66748,4.85287 3.18584,2.29745 6.40728,4.17717 7.15873,4.17717 0.75145,0 4.53991,3.07384 8.41879,6.83075 4.46165,4.32135 10.66725,8.56905 16.89202,11.5625 l 9.839517,4.73175 0.01125,33.4375 0.01221,33.4375 -209.999997,0 -210,0 0,-12.875 z"
         id="path3370"
         inkscape:connector-curvature="0" />
      <path
         style="fill:#906c27"
         d="m -518.15622,548.92471 c 0.19382,-12.41673 0.39966,-13.46179 2.70975,-13.75716 1.375,-0.17582 3.32138,0.21172 4.3253,0.86118 1.55757,1.00765 1.4659,1.57825 -0.625,3.89027 -1.8466,2.04186 -2.47173,4.60143 -2.53727,10.38881 -0.12429,10.97535 -0.33109,12.0544 -2.31028,12.0544 -1.43276,0 -1.73206,-2.57404 -1.5625,-13.4375 z m 19.1821,10.78278 c -0.5533,-2.11584 -1.32857,-2.49552 -3.81918,-1.87042 -1.71873,0.43138 -3.41722,0.31141 -3.77444,-0.26656 -1.03851,-1.68036 2.9245,-6.4583 5.35677,-6.4583 1.85524,0 2.202,-1.0713 2.11662,-6.53906 -0.12563,-8.04483 2.68256,-9.57489 5.75359,-3.13486 1.71473,3.59582 1.74626,4.48861 0.23164,6.55997 -1.57597,2.15528 -1.43522,2.56429 1.39221,4.04574 1.72999,0.90642 3.1842,2.05196 3.23157,2.54564 0.0474,0.49366 0.30464,2.57947 0.57171,4.63513 0.37095,2.85518 0.1806,3.29784 -0.80629,1.875 -0.9735,-1.40355 -1.44812,-1.4775 -1.92588,-0.30006 -0.3487,0.85937 -2.20902,1.5625 -4.13405,1.5625 -2.51678,0 -3.69507,-0.74579 -4.19427,-2.65472 z m 23.41998,-4.10627 c 7.84411,-9.42334 10.47602,-11.99269 12.23835,-11.94742 0.93144,0.0239 0.43787,1.02751 -1.16187,2.36251 -2.3053,1.9238 -2.73203,3.42514 -2.49384,8.7741 0.24989,5.61168 10e-4,6.37836 -1.90631,5.8795 -1.20651,-0.3155 -2.19366,-0.10414 -2.19366,0.46972 0,0.57385 -2.15782,0.94307 -4.79517,0.82048 l -4.79516,-0.2229 z m 17.89934,5.35588 c 0.84791,-0.85428 1.85655,-1.23834 2.24141,-0.85348 0.38486,0.38486 -0.30889,1.08382 -1.54167,1.55323 -1.7815,0.67835 -1.92508,0.53477 -0.69974,-0.69975 z m 19.8646,-1.96222 c 0.47527,-1.92921 2.52363,-7.44517 4.55191,-12.25767 2.02828,-4.8125 3.93135,-10.4375 4.22903,-12.5 0.84405,-5.84805 4.59216,-16.875 5.73588,-16.875 2.16899,0 2.49864,4.31484 1.03498,13.54704 -0.83517,5.26789 -2.17989,14.35921 -2.98828,20.20296 l -1.46979,10.625 -5.97893,0.38268 -5.97893,0.38268 0.86413,-3.50768 z m 39.21873,-174.58704 c 0,1.12907 1.6875,4.79538 3.75,8.14736 2.0625,3.35201 3.76024,6.50797 3.77275,7.01325 0.0267,1.07995 6.17566,10.67537 10.00076,15.60623 2.44042,3.14588 3.38095,3.4375 11.08678,3.4375 8.80187,0 14.16161,-1.86677 23.44236,-8.16485 2.55178,-1.73169 6.08696,-3.49106 7.85598,-3.90972 1.769,-0.41866 4.08805,-1.51459 5.15343,-2.43541 1.06538,-0.92081 4.29307,-2.50545 7.17263,-3.52141 7.9431,-2.80248 14.78844,-10.14367 15.62156,-16.75314 0.37504,-2.97522 1.62869,-6.45571 2.78589,-7.73441 1.6193,-1.78931 1.90306,-3.51419 1.23177,-7.48752 -0.78102,-4.62284 -0.5867,-5.23732 1.85847,-5.87674 2.38377,-0.62338 2.62601,-1.28757 1.90668,-5.22795 -0.4532,-2.48261 -1.6198,-5.75 -2.59243,-7.26085 -2.05012,-3.18455 -1.89317,-3.75958 4.87971,-17.878 6.2371,-13.00159 6.46115,-17.9497 1.14947,-25.38718 -2.0574,-2.88079 -5.02332,-7.76717 -6.59093,-10.85859 -1.56763,-3.09143 -3.5443,-6.18518 -4.39263,-6.875 -0.84832,-0.68983 -1.87762,-2.70467 -2.28735,-4.47743 -0.41412,-1.79175 -2.17222,-3.87351 -3.95875,-4.6875 -4.18837,-1.90835 -4.76085,-1.84798 -3.89411,0.4107 0.88601,2.30894 0.43982,2.3081 -7.2132,-0.0135 -6.51779,-1.97725 -14.78821,-2.30279 -18.78086,-0.73925 -3.08158,1.20675 -2.08377,1.76596 9.03251,5.06223 7.9727,2.36411 9.36505,3.22631 11.10611,6.87736 4.3618,9.14677 -0.98457,13.96643 -16.98035,15.30746 -6.72474,0.56377 -8.61864,0.31025 -9.98554,-1.33678 -0.92775,-1.11787 -3.3231,-2.0325 -5.323,-2.0325 -2.13847,0 -3.87745,-0.77228 -4.22193,-1.875 -0.32218,-1.03125 -0.85868,-2.74301 -1.19223,-3.8039 -0.82551,-2.62565 -5.36425,-0.21845 -6.82316,3.61878 -1.58114,4.15869 -4.84754,6.53297 -6.59021,4.7903 -1.05183,-1.05183 -0.83415,-3.58291 0.85006,-9.88452 1.24516,-4.65886 2.32711,-10.60188 2.40435,-13.20672 0.11675,-3.93574 0.84621,-5.18327 4.31712,-7.38256 5.20533,-3.29828 18.50299,-4.35504 30.76977,-2.44529 8.03282,1.2506 9.05366,1.14389 13.74051,-1.43635 6.27245,-3.45312 6.8183,-6.31476 2.85079,-14.94521 -3.78523,-8.23395 -8.28932,-13.58605 -16.60024,-19.72569 -3.58903,-2.65138 -12.07446,-10.34145 -18.85653,-17.08907 -14.64895,-14.57456 -22.64627,-21.61479 -24.55321,-21.61479 -0.76637,0 -3.67366,1.53494 -6.46061,3.41097 -21.09688,14.20133 -26.38936,23.01539 -29.43486,49.02064 -0.68878,5.88137 -1.5604,12.52267 -1.93695,14.75845 -0.67892,4.03121 -0.71438,4.04968 -4.25874,2.21682 -3.09762,-1.60185 -3.77669,-2.98174 -5.09351,-10.35024 -1.54322,-8.63533 -1.10799,-22.98265 0.98004,-32.30712 2.14255,-9.56797 12.35336,-27.0515 22.37724,-38.31562 2.29603,-2.58011 4.17459,-5.20275 4.17459,-5.8281 0,-1.04479 12.16374,-8.67136 26.14723,-16.39412 3.15027,-1.73983 7.1368,-4.10483 8.85895,-5.25555 5.44865,-3.64075 31.4658,-9.47877 46.93027,-10.53074 15.89928,-1.08155 43.09791,3.93635 55.97875,10.32758 3.32211,1.64836 6.62146,2.99703 7.3319,2.99703 0.71043,0 5.21096,2.60553 10.00119,5.79006 20.03489,13.31917 39.0584,43.97007 41.67596,67.1488 1.24101,10.9893 1.70461,11.98071 9.25595,19.79412 6.64886,6.87962 7.49586,8.3754 8.87178,15.66745 1.74342,9.23984 0.99586,18.44742 -1.96218,24.16765 -1.99411,3.85618 -1.94421,4.13951 2.04836,11.6297 7.97863,14.96816 5.74859,37.05383 -4.67305,46.28043 -2.49056,2.20498 -4.98206,6.18575 -6.23777,9.96635 -4.34365,13.0775 -20.01847,23.35694 -32.80445,21.51292 -10.21237,-1.47285 -10.6999,-1.43127 -11.18208,0.95388 -1.0201,5.0461 1.67531,9.2783 12.65231,19.86602 15.30439,14.76163 14.06002,13.70101 23.98188,20.44038 9.39236,6.37973 11.93412,8.26445 22.15291,16.42655 3.6284,2.89813 12.78459,9.18984 20.34709,13.98159 7.5625,4.79174 16.19902,10.29555 19.19229,12.23069 2.99325,1.93512 7.19807,4.56214 9.34405,5.83781 2.14597,1.27568 6.77976,4.93193 10.29728,8.125 6.87214,6.23826 18.48293,12.6806 22.85377,12.6806 2.683785,0 2.68761,0.048 2.68761,33.75 l 0,33.75 -9.375,0 c -5.15625,0 -9.375,-0.52324 -9.375,-1.16274 0,-0.717 -1.55425,-0.717 -4.05425,0 -5.32655,1.52763 -10.94575,1.48284 -10.94575,-0.0873 0,-0.6875 -0.87695,-1.25 -1.94877,-1.25 -1.07183,0 -1.64458,0.49219 -1.27279,1.09375 0.37177,0.60156 -0.70976,1.09375 -2.40344,1.09375 -1.69367,0 -2.77276,-0.49616 -2.39797,-1.10258 0.37478,-0.60642 -0.25474,-1.46182 -1.39896,-1.90089 -1.15286,-0.44241 -2.52842,-0.0734 -3.08532,0.82769 -0.55271,0.8943 -2.47484,1.78273 -4.27139,1.97428 -2.24318,0.23916 -2.98845,-0.11525 -2.37897,-1.13138 0.67022,-1.11738 0.44624,-1.13285 -0.91494,-0.0632 -2.32054,1.82356 -66.65202,2.23772 -65.52977,0.42188 0.41242,-0.66727 -0.72278,-1.21326 -2.52268,-1.21326 -1.7999,0 -2.94474,0.5304 -2.5441,1.17865 0.99749,1.61396 -12.04159,1.42967 -14.0184,-0.19813 -0.97046,-0.79912 -1.5625,-0.82438 -1.5625,-0.0666 0,0.70169 -4.7793,1.22696 -11.25,1.23644 -6.1875,0.009 -11.25,-0.28628 -11.25,-0.65633 0,-0.37005 1.39303,-4.15483 3.09563,-8.41063 2.51728,-6.29225 3.06168,-9.6967 2.91401,-18.22308 -0.12753,-7.36307 0.43955,-11.92649 1.90439,-15.3254 2.21866,-5.14805 2.79831,-12.03485 1.01295,-12.03485 -0.59017,0 -3.12717,3.09375 -5.63777,6.875 -2.51061,3.78125 -5.46294,6.875 -6.56071,6.875 -1.09779,0 -1.71626,-0.70312 -1.37439,-1.5625 3.25886,-8.19197 5.24473,-14.15616 10.093,-30.3125 3.09463,-10.3125 5.97179,-21.28125 6.3937,-24.375 0.42191,-3.09375 1.63634,-9.37766 2.69873,-13.96426 1.06238,-4.58659 1.69039,-9.36784 1.39557,-10.625 -0.7565,-3.22578 -7.1549,10.33256 -7.17987,15.21426 -0.0254,4.96875 -2.25867,12.82506 -3.94128,13.86498 -3.3786,2.08808 -3.90467,-6.39389 -0.79656,-12.84315 0.72314,-1.5005 0.91756,-3.7505 0.43206,-5 -0.80065,-2.0606 -1.1357,-1.9615 -3.60358,1.06581 -3.52122,4.3194 -11.08923,16.60836 -13.91755,22.59936 -1.21699,2.57785 -5.52373,7.55539 -9.57052,11.06118 -4.12727,3.57552 -7.35781,7.41017 -7.35781,8.73372 0,1.49845 -1.53957,3.00283 -4.21871,4.12224 -2.32029,0.96949 -5.83591,3.79305 -7.8125,6.2746 -4.07221,5.11257 -11.59985,10.85006 -21.55178,16.42656 l -6.79101,3.8053 -0.21014,14.9447 c -0.22688,16.13625 -1.7929,21.81965 -6.01222,21.81965 -2.01406,0 -2.31416,-0.60596 -1.70243,-3.4375 3.83147,-17.73461 3.37354,-28.1248 -1.26973,-28.81033 -3.71953,-0.54913 -5.14344,1.88354 -10.23948,17.49364 -3.85187,11.79899 -5.05999,14.1934 -7.32542,14.51855 -2.44738,0.35126 -2.66603,-0.0813 -2.2344,-4.41978 0.55686,-5.59758 5.82277,-20.78023 10.26581,-29.59837 3.69576,-7.33502 3.39282,-9.71592 -2.92989,-23.02731 -7.5458,-15.88635 -12.9681,-29.35662 -12.9681,-32.2158 0,-3.37297 -3.24641,-11.29432 -5.09765,-12.43845 -0.76484,-0.4727 -3.84592,1.55838 -6.87762,4.53376 -4.10535,4.0291 -6.24843,7.61663 -8.48758,14.20833 -1.64752,4.85005 -4.22826,11.91201 -5.73496,15.69326 -1.50671,3.78125 -3.22083,8.4228 -3.80916,10.31455 -0.58833,1.89175 -2.25343,5.82925 -3.70023,8.75 -1.79487,3.62344 -3.52385,12.06113 -5.44256,26.56045 l -2.81204,21.25 -4.42766,0.37505 -4.42766,0.37506 -0.23527,-7.25006 0,10e-6 c -0.12939,-3.98753 -0.54431,-12.42238 -0.92204,-18.74411 -0.46368,-7.76018 -0.20075,-12.40223 0.80938,-14.28968 1.95441,-3.65183 4.8139,-15.68779 4.87052,-20.50062 0.0245,-2.08142 0.82036,-4.89392 1.76859,-6.25 0.94824,-1.3561 3.22941,-7.24689 5.06926,-13.09064 1.83986,-5.84375 5.49706,-14.5625 8.1271,-19.375 2.63005,-4.8125 4.77857,-10.25193 4.77449,-12.0876 -0.004,-1.83569 1.1879,-5.01628 2.64884,-7.06796 1.46094,-2.0517 2.65625,-4.30754 2.65625,-5.01297 0,-0.70542 1.26563,-1.46235 2.8125,-1.68203 1.73053,-0.24578 3.75275,-2.15548 5.2566,-4.96413 2.06219,-3.85142 2.20095,-5.02335 0.88801,-7.5 -2.4227,-4.57001 -4.33637,-7.64482 -7.50771,-12.06305 -5.82072,-8.10926 -23.61249,-43.12321 -24.49685,-48.20944 -0.57916,-3.33097 -0.24169,-3.02503 2.26948,2.05744 m 13.00394,12.66531 c 11.14115,-0.73611 32.58379,-3.19637 38.39903,-2.4154 1.375,0.18466 3.18868,0.40754 4.0304,0.49529 4.23306,3.2483 -1.54294,2.22889 -4.94994,2.10595 -7.14978,0.80418 -21.95651,1.72716 -21.95651,1.72716 -8.21053,0.0293 -9.31243,-0.60838 -12.25955,-1.81093 m 248.78129,176.08341 c 0.43348,-1.12965 0.53108,-2.31097 0.2169,-2.62516 -0.99341,-0.99339 -3.23759,1.00142 -3.23759,2.87788 0,2.4519 2.0486,2.28054 3.02069,-0.25268 z m -49.27069,-8.0991 c 0,-0.60332 -0.84375,-1.09695 -1.875,-1.09695 -1.07773,0 -1.875,1.12811 -1.875,2.65305 0,2.21655 0.3085,2.39704 1.875,1.09695 1.03125,-0.85586 1.875,-2.04974 1.875,-2.65305 z m -38.83786,-10.15945 c 0.0483,-1.20313 -0.47464,-2.1875 -1.16214,-2.1875 -0.6875,0 -1.21046,2.10937 -1.16214,4.6875 0.0705,3.76025 0.30037,4.19296 1.16214,2.1875 0.59086,-1.375 1.11383,-3.48438 1.16214,-4.6875 z m -9.31223,-12.19744 c 0.71469,-2.40078 1.93053,-5.49006 2.70186,-6.86506 0.77135,-1.375 1.79494,-4.32813 2.27466,-6.5625 1.28591,-5.9894 3.66861,-5.1601 2.69356,0.9375 -0.45349,2.83599 -0.29409,5 0.3683,5 1.27569,0 2.67557,-3.91421 5.73366,-16.03194 2.50529,-9.92721 3.22089,-43.12522 0.97795,-45.36816 -1.98526,-1.98526 -3.43941,1.77734 -5.37205,13.9001 -0.88293,5.53829 -2.9105,11.93281 -4.95436,15.625 -4.68977,8.47191 -7.23682,17.99042 -8.1024,30.27926 -0.39823,5.65359 -1.07545,11.19503 -1.50495,12.31428 -0.57677,1.50303 -0.17113,1.91758 1.55171,1.5858 1.39961,-0.26954 2.85239,-2.19518 3.63206,-4.81428 z m -81.22491,-11.70187 c 7.59418,-5.22365 34.69333,-33.91499 37.34624,-39.5405 1.45956,-3.09503 3.90676,-6.87928 5.4382,-8.40945 4.41862,-4.41494 13.19309,-22.80849 14.47257,-30.33824 1.77329,-10.43572 1.3495,-22.01492 -0.92452,-25.26156 -1.07663,-1.53709 -1.95749,-3.89892 -1.95749,-5.24852 0,-4.02258 -4.91525,-8.23992 -9.60354,-8.23992 -3.46882,0 -6.07305,1.72942 -15.52892,10.3125 -6.24864,5.67187 -12.57196,11.12699 -14.05185,12.12246 -1.47988,0.99548 -6.43288,5.35485 -11.00665,9.6875 -4.57378,4.33265 -9.19483,7.87754 -10.269,7.87754 -1.07418,0 -3.93816,1.74296 -6.36443,3.87324 -3.49478,3.06847 -4.25408,4.49995 -3.65435,6.88949 0.41637,1.65892 -0.23072,5.96285 -1.43797,9.56424 -1.20724,3.60142 -2.28808,9.64178 -2.40185,13.42303 -0.23138,7.6901 -2.06759,13.0551 -4.83115,14.11559 -2.80835,1.07766 -4.01373,12.43357 -1.70739,16.0853 1.01574,1.60826 2.26754,4.33036 2.7818,6.04911 1.43954,4.81122 6.70116,11.05077 9.72896,11.5372 3.5524,0.5707 9.28438,-1.27509 13.97134,-4.49901 z m 204.15415,1.29572 c 0.23384,-1.20571 -0.39354,-2.08391 -1.48872,-2.08391 -2.32217,0 -3.7237,2.03769 -2.62465,3.81599 1.13067,1.82945 3.62647,0.77851 4.11337,-1.73208 z m -63.03789,-16.56115 c 0.41731,-1.08747 0.75874,-2.88747 0.75874,-4 0,-2.5955 -1.92966,-0.60547 -3.06874,3.16474 -0.95539,3.1622 1.128,3.91553 2.31,0.83526 z m -2.36211,-40.52948 c 0.42261,-0.6838 0.31332,-1.22539 -0.24288,-1.20353 -1.39425,0.0548 -5.38627,3.17099 -5.38627,4.20454 0,1.09079 4.62374,-1.37421 5.62915,-3.00101 z m -34.37915,-7.49328 c 0,-0.6875 -0.24805,-1.25 -0.55122,-1.25 -0.30318,0 -0.89888,0.5625 -1.32378,1.25 -0.4249,0.6875 -0.17685,1.25 0.55123,1.25 0.72807,0 1.32377,-0.5625 1.32377,-1.25 z m -166.25,-6.40305 c 0,-1.29082 -0.50232,-2.34695 -1.11626,-2.34695 -1.27467,0 -2.63374,3.03436 -2.63374,5.88029 0,1.57011 0.34633,1.6384 1.875,0.36971 1.03125,-0.85586 1.875,-2.61224 1.875,-3.90305 z m 34.40884,-143.6517 c 0.87665,-1.41845 -1.51328,-4.94525 -3.35113,-4.94525 -2.0106,0 -2.73061,3.9652 -0.92736,5.10701 2.29914,1.45581 3.30221,1.41789 4.27849,-0.16176 z m -135.06428,247.65067 c 0.50414,-1.5884 -0.10362,-2.98583 -1.82205,-4.18946 -3.61433,-2.53157 -2.12874,-5.17662 4.42549,-7.87947 4.95383,-2.04287 5.552,-2.72534 5.552,-6.33449 0,-2.22473 0.5625,-4.3926 1.25,-4.8175 0.6875,-0.4249 1.25,0.38565 1.25,1.80123 0,3.65296 1.5207,3.20852 6.04915,-1.76792 4.67971,-5.14265 4.91589,-6.59636 1.15903,-7.13387 -2.72109,-0.38931 -2.69734,-0.48688 0.9375,-3.85074 3.6789,-3.40462 7.77314,-5.42155 8.83993,-4.35476 0.89955,0.89956 -3.19074,9.73743 -5.80562,12.54419 -1.3365,1.43455 -2.43209,3.76783 -2.43466,5.18507 -0.007,3.91229 -4.39606,10.28722 -9.27726,13.47516 -2.40145,1.5684 -4.5298,3.91542 -4.72967,5.21558 -0.19987,1.30017 -1.66545,2.8424 -3.25685,3.42717 -2.48959,0.91481 -2.78787,0.73055 -2.13699,-1.32019 z m 9.59856,-1.89298 c 0.23753,-1.14675 0.99438,-2.05528 1.68188,-2.01896 1.85536,0.098 1.51451,2.89452 -0.43188,3.54331 -1.0514,0.35047 -1.51998,-0.22096 -1.25,-1.52435 z m 9.80688,-7.39115 c 0,-2.09962 2.03804,-4.50775 7.14078,-8.4375 8.35577,-6.43499 14.68514,-12.51789 19.37892,-18.62429 2.18258,-2.83945 3.38351,-3.66719 3.4216,-2.35835 0.0966,3.31701 -19.25697,28.60835 -21.89177,28.60835 -0.84263,0 -1.85583,0.84375 -2.25156,1.875 -0.39573,1.03125 -1.86216,1.875 -3.25874,1.875 -1.83213,0 -2.53923,-0.8182 -2.53923,-2.93821 z m -32.4427,-5.91885 c 0.76739,-1.43388 1.70042,-2.30189 2.0734,-1.9289 1.03033,1.03032 -0.62006,4.53596 -2.13545,4.53596 -0.92445,0 -0.90542,-0.79932 0.062,-2.60706 z m 8.0677,-7.39294 c 0.4249,-0.6875 1.0206,-1.25 1.32377,-1.25 0.30318,0 0.55123,0.5625 0.55123,1.25 0,0.6875 -0.5957,1.25 -1.32377,1.25 -0.72807,0 -0.97613,-0.5625 -0.55123,-1.25 z m 5.625,-4.30123 c 0,-1.07182 0.5625,-1.94877 1.25,-1.94877 0.6875,0 1.25,0.5293 1.25,1.17623 0,0.64692 -0.5625,1.52387 -1.25,1.94877 -0.6875,0.4249 -1.25,-0.10438 -1.25,-1.17623 z m 5,-0.47195 c 0,-1.51068 2.3715,-3.27198 3.23837,-2.40512 0.31463,0.31462 -0.2853,1.28357 -1.33316,2.15322 -1.18798,0.98594 -1.90521,1.08078 -1.90521,0.2519 z m 22.785,-19.28932 c 0.59254,-1.87669 11.90271,-9.70827 13.91877,-9.63786 2.0982,0.0733 -10.37355,11.20036 -12.55387,11.20036 -1.02203,0 -1.63623,-0.70313 -1.3649,-1.5625 z m 22.70626,-9.16474 c 0.41731,-1.08747 0.75874,-2.60622 0.75874,-3.375 0,-1.01964 0.38306,-1.0147 1.41598,0.0182 1.63686,1.63683 0.5899,5.33399 -1.51048,5.33399 -0.78401,0 -1.08227,-0.88785 -0.66424,-1.97724 z m 38.30272,-132.94059 c -1.77444,-3.31556 -1.64785,-3.69066 1.01088,-2.99538 1.27135,0.33246 4.46052,-0.86014 7.1123,-2.6597 2.64412,-1.79434 5.50448,-2.99496 6.35639,-2.66805 0.8519,0.3269 3.50309,0.96097 5.89151,1.40905 3.75645,0.70471 4.46175,0.43923 5.22543,-1.96686 0.68905,-2.17102 1.12299,-2.40234 1.97702,-1.05389 3.36828,5.31822 -0.78458,10.38207 -7.57367,9.23506 -3.37791,-0.57069 -5.04905,-0.25727 -6.23269,1.16891 -2.45226,2.9548 -12.11089,2.62566 -13.76717,-0.46914 z m 13.07368,-20.10528 c -1.07765,-3.3954 0.15155,-4.64238 2.87979,-2.92144 2.71948,1.7154 2.74614,4.66619 0.0469,5.18603 -1.24467,0.23969 -2.42059,-0.67022 -2.92663,-2.26459 z m -35.31497,-25.8205 c -3.74173,-1.53588 -4.05887,-2.1022 -3.90683,-6.97648 0.091,-2.9177 -0.8233,-7.73027 -2.0318,-10.6946 -2.10826,-5.17133 -2.1849,-17.93237 -0.12769,-21.26101 0.94495,-1.52895 20.54418,4.33289 23.75913,7.10599 1.30377,1.12459 3.97565,4.23849 5.9375,6.91976 4.48598,6.13101 5.03488,14.87641 1.067,16.99995 -1.375,0.73588 -2.5,2.14024 -2.5,3.1208 0,1.64279 -3.85791,3.14188 -14.375,5.58575 -2.25523,0.52406 -5.37324,0.20511 -7.82231,-0.80016 z m 5.94731,-7.36357 c 0,-2.00671 -2.81914,-5.54282 -4.41898,-5.54282 -2.38327,0 -2.31469,1.1437 0.23772,3.96407 1.99908,2.20897 4.18126,3.03291 4.18126,1.57875 z m 7.13492,-18.8238 c 0.72392,-2.16987 -9.39674,-5.71997 -13.64597,-4.78668 -4.00137,0.87885 -6.0114,4.0087 -3.55099,5.52932 2.39608,1.48085 16.66066,0.86485 17.19696,-0.74264 z"
         id="path3368"
         inkscape:connector-curvature="0"
         sodipodi:nodetypes="ssssssssscssssscsssssscsscsscssssscsssssccccccscsssssssssssssssssssssssssscsssscssssssssssssssssssssssssssssssssssssssscssssscsccsssscsssscssssssssssssssssssssssscssssssssssssssssscccccsssssscsssssssccsccccccsccsssssssssssssssssssssssssssssssssssssssssssssssssssssssssssssssssssssssssssssssscssssssssssscssssccsccssssssssssssssscsscsssccsssssssssscscccssssssssssssssssss" />
      <path
         style="fill:#382714"
         d="m -359.82147,561.8415 c 0,-0.24325 0.83226,-2.33497 1.84946,-4.64828 l 1.84947,-4.20601 -0.23787,4.02984 c -0.13081,2.21641 -0.96307,4.30814 -1.84946,4.64827 -0.88637,0.34014 -1.6116,0.41942 -1.6116,0.17618 z m 21.25,0.14339 c 0,-0.32211 0.82733,-2.47836 1.83849,-4.79167 l 1.8385,-4.20601 -0.41234,4.31628 c -0.22677,2.37396 -1.0541,4.53021 -1.83849,4.79167 -0.78438,0.26146 -1.42616,0.21184 -1.42616,-0.11027 z m 226.67145,-1.57739 c -0.41256,-1.07509 -0.17337,-3.22049 0.53151,-4.76754 0.86164,-1.89109 0.87015,-3.54805 0.026,-5.05649 -0.87355,-1.56093 -0.7883,-3.11685 0.28015,-5.11327 0.84468,-1.57828 1.20582,-3.40349 0.80254,-4.05601 -0.84169,-1.36185 4.40996,-4.05198 7.91023,-4.05198 1.4476,0 2.562858,-1.08313 2.895958,-2.8125 0.297937,-1.54688 0.618312,4.07812 0.711937,12.5 l 0.170225,15.3125 -6.28922,0 c -4.55132,0 -6.49652,-0.54015 -7.03933,-1.95471 z m -244.11861,-10.1859 c -0.0648,-3.38634 4.64592,-16.27568 6.32819,-17.31536 1.62382,-1.00358 0.19498,4.51866 -3.41694,13.20597 -1.7887,4.30214 -2.87819,5.84001 -2.91125,4.10939 z m 21.48716,-2.85939 c 0,-2.40625 0.25725,-3.39063 0.57166,-2.1875 0.3144,1.20312 0.3144,3.17187 0,4.375 -0.31441,1.20312 -0.57166,0.21875 -0.57166,-2.1875 z m -183.72477,-4.375 c 0.0139,-2.75 0.26985,-3.72781 0.56885,-2.17292 0.29899,1.55488 0.28764,3.80488 -0.0252,5 -0.31287,1.19511 -0.55749,-0.0771 -0.54362,-2.82708 z m 172.08057,-15.97972 2.86029,-4.72972 -2.86118,-7.14528 c -1.57365,-3.92991 -4.63247,-10.80153 -6.7974,-15.27028 -5.5384,-11.43212 -11.46317,-34.51524 -12.49461,-48.6793 -0.32257,-4.42988 -1.0655,-8.5333 -1.65094,-9.11874 -2.25561,-2.25561 -23.95196,30.4191 -23.95196,36.07166 0,1.01309 -1.91917,5.94118 -4.26485,10.95132 -2.34566,5.01013 -5.129,12.01929 -6.1852,15.57589 -1.0562,3.5566 -2.85359,7.72826 -3.99421,9.27036 -2.0137,2.72249 -2.0504,2.64065 -1.26528,-2.82119 1.72381,-11.99189 13.27405,-38.31674 25.77705,-58.75 2.7344,-4.46875 6.0227,-10.41031 7.30733,-13.20348 2.42669,-5.27632 5.74371,-9.29652 7.67046,-9.29652 2.39569,0 3.57428,5.14084 4.88541,21.30946 0.74998,9.24855 2.519,21.03429 3.93117,26.19054 1.41215,5.15625 3.07127,11.758 3.68692,14.67056 1.18999,5.62967 10.22796,24.77853 13.07003,27.69163 0.93216,0.95545 3.42297,1.7992 5.53515,1.875 4.49536,0.16132 4.50448,0.18161 1.65852,3.69065 -1.61666,1.99332 -3.27815,2.59267 -6.36692,2.29675 -2.71239,-0.25988 -5.09744,0.39829 -6.79474,1.875 -2.48341,2.16066 -2.47106,2.03687 0.24496,-2.45431 z m -65.56873,-1.83278 c 0.86844,-4.75955 4.42293,-10.11417 4.42293,-6.66289 0,3.26725 -2.91053,11.35039 -4.08697,11.35039 -0.69528,0 -0.83516,-1.95163 -0.33596,-4.6875 z m 246.92293,2.66532 c 0,-0.6875 0.82586,-2.34188 1.83525,-3.67641 1.00938,-1.33452 1.83524,-1.86391 1.83524,-1.17641 0,0.6875 -0.82586,2.34189 -1.83524,3.67641 -1.00939,1.33453 -1.83525,1.86391 -1.83525,1.17641 z m 64.58334,-2.56116 c -1.27579,-1.27577 -0.99063,-5.17191 0.443397,-6.05819 0.783376,-0.48415 1.163663,0.6949 0.984113,3.05123 -0.325388,4.2703 -0.273488,4.16099 -1.42751,3.00696 z m -0.83334,-20.41666 c 0,-0.6875 0.5625,-1.25 1.25,-1.25 0.6875,0 1.25,0.5625 1.25,1.25 0,0.6875 -0.5625,1.25 -1.25,1.25 -0.6875,0 -1.25,-0.5625 -1.25,-1.25 z m 0,-3.82377 c 0,-0.72808 0.5625,-0.97613 1.25,-0.55123 0.6875,0.4249 1.25,1.0206 1.25,1.32377 0,0.30318 -0.5625,0.55123 -1.25,0.55123 -0.6875,0 -1.25,-0.5957 -1.25,-1.32377 z m -8.75,-1.69899 c 0,-0.97503 -0.3297,-2.63195 -0.73266,-3.68206 -0.62153,-1.61967 -0.18812,-1.70375 2.85713,-0.55429 4.46536,1.68547 4.99252,6.00911 0.73267,6.00911 -1.63311,0 -2.85714,-0.75946 -2.85714,-1.77276 z m -21.91891,-0.79829 c -1.23973,-2.00591 0.49325,-7.42895 2.37399,-7.42895 1.9138,0 5.79492,3.94489 5.79492,5.89014 0,0.72505 -1.26562,1.65746 -2.8125,2.072 -3.86856,1.03673 -4.42007,0.98183 -5.35641,-0.53319 z m -20.58109,-1.23864 c 0,-0.72032 1.40625,-2.61295 3.125,-4.20584 3.65491,-3.38726 4.01931,-4.93123 0.9375,-3.97225 -1.20312,0.37439 -2.79406,0.27168 -3.53542,-0.22826 -2.10295,-1.41811 -5.52708,-9.09703 -5.52708,-12.39499 0,-1.63731 -0.87431,-4.3113 -1.94293,-5.9422 -2.42837,-3.70617 -0.88217,-4.85554 5.03787,-3.74493 4.92061,0.92311 13.87038,9.6308 10.55482,10.26932 -2.46792,0.47528 -2.8156,10.27884 -0.36453,10.27884 2.15668,0 2.23101,2.05174 0.12225,3.37539 -0.87588,0.54978 -2.57634,2.54648 -3.77882,4.43711 -2.19587,3.45258 -4.62866,4.57092 -4.62866,2.12781 z m 51.25,-0.56531 c 0,-1.03125 0.5625,-1.875 1.25,-1.875 0.6875,0 1.25,0.84375 1.25,1.875 0,1.03125 -0.5625,1.875 -1.25,1.875 -0.6875,0 -1.25,-0.84375 -1.25,-1.875 z m -65,-9.82206 c 0,-1.73547 -0.5625,-3.50304 -1.25,-3.92794 -1.38773,-0.85766 -1.61997,-5.99226 -0.46582,-10.29844 1.00793,-3.76062 2.96582,-2.31812 2.96582,2.1851 0,2.08207 0.88841,4.11129 2.09576,4.78697 1.71029,0.95712 1.87929,1.92768 0.9188,5.27667 -1.45806,5.084 -4.26456,6.38547 -4.26456,1.97764 z m 40.421,0.21986 c -1.4872,-0.71941 -2.98141,-2.36884 -3.32048,-3.6654 -0.81261,-3.10744 0.29287,-2.92232 4.46198,0.74715 4.95716,4.36307 4.46204,5.62884 -1.1415,2.91825 z m -158.546,-7.2728 c 1.24436,-1.375 2.47633,-2.5 2.73771,-2.5 0.26139,0 -0.12683,1.125 -0.86271,2.5 -0.73587,1.375 -1.96785,2.5 -2.73771,2.5 -0.76986,0 -0.38165,-1.125 0.86271,-2.5 z m 41.875,-6.875 c 0,-1.03125 0.5625,-1.875 1.25,-1.875 0.6875,0 1.25,0.84375 1.25,1.875 0,1.03125 -0.5625,1.875 -1.25,1.875 -0.6875,0 -1.25,-0.84375 -1.25,-1.875 z m 52.5,-1.17623 c 0,-1.07182 0.5625,-1.94877 1.25,-1.94877 0.6875,0 1.25,0.5293 1.25,1.17623 0,0.64692 -0.5625,1.52387 -1.25,1.94877 -0.6875,0.4249 -1.25,-0.10438 -1.25,-1.17623 z m -87.5,-1.875 c 0,-0.64692 0.55606,-1.5199 1.23569,-1.93992 0.70857,-0.43793 0.91812,0.0639 0.49126,1.17622 -0.83099,2.16553 -1.72695,2.56174 -1.72695,0.7637 z m 7.5,-12.42623 c 0,-0.6875 0.5625,-1.59764 1.25,-2.02254 0.6875,-0.4249 1.25,-0.21004 1.25,0.47746 0,0.6875 -0.5625,1.59764 -1.25,2.02254 -0.6875,0.4249 -1.25,0.21004 -1.25,-0.47746 z m 5.17508,-8.89754 c 5.79886,-10.3543 10.1965,-24.58793 9.50157,-30.75326 -0.57971,-5.14327 -0.24596,-6.01708 4.06325,-10.63829 l 4.69483,-5.03475 0.81511,3.24764 c 0.7354,2.93008 -2.01893,22.91798 -3.79639,27.54996 -0.39651,1.03329 -1.70166,1.8787 -2.90034,1.8787 -1.93653,0 -10.05311,11.01197 -10.05311,13.63932 0,0.53527 -1.23191,2.04477 -2.73759,3.35444 -2.59388,2.25625 -2.57222,2.08598 0.41267,-3.24376 z m 24.67323,-47.35101 c -2.40117,-1.88878 -3.57692,-2.17038 -4.63676,-1.11054 -0.78094,0.78094 -1.57179,1.17614 -1.75744,0.87821 -0.18566,-0.29791 -1.64263,-2.40295 -3.23773,-4.67785 -2.31127,-3.29628 -2.59662,-4.50196 -1.40523,-5.9375 1.88675,-2.27339 6.18885,-2.35545 6.18885,-0.118 0,0.92579 2.01056,3.75347 4.46793,6.28373 5.0529,5.2028 5.32668,8.57277 0.38038,4.68201 z m -4.82917,-18.58649 c -0.0112,-0.94709 -1.73291,-1.5625 -4.37033,-1.5625 -3.60468,0 -4.48643,-0.53887 -5.13952,-3.141 -0.43359,-1.72755 -0.4126,-4.96193 0.0466,-7.1875 0.45923,-2.22558 0.85452,-5.44485 0.8784,-7.15395 0.0239,-1.70909 0.55611,-4.0654 1.18273,-5.23622 1.20349,-2.24874 -0.77248,-14.29918 -2.74954,-16.76814 -0.70381,-0.87892 0.54266,-2.43027 3.51521,-4.375 3.64395,-2.38396 5.56458,-5.23193 9.19743,-13.63819 6.60151,-15.27558 7.422,-18.47253 7.40144,-28.83875 -0.0231,-11.62889 -1.74714,-15.3994 -7.28605,-15.93455 -4.96165,-0.47938 -10.19553,2.62749 -10.19553,6.05211 0,3.06158 0.11088,3.059 5.51241,-0.12801 4.18623,-2.46992 6.98759,-2.40059 6.98759,0.17298 0,0.64692 -0.85767,1.17622 -1.90594,1.17622 -1.04826,0 -2.41982,1.35161 -3.0479,3.00358 -0.62807,1.65196 -1.73915,3.37266 -2.46906,3.82377 -2.41941,1.49528 -1.37615,4.4547 2.1104,5.9865 8.87119,3.89754 4.50978,8.46795 -8.08315,8.47051 -1.52386,3.1e-4 -4.7718,1.18128 -7.21764,2.62436 -4.04226,2.38499 -4.3761,3.00173 -3.66796,6.77643 1.02188,5.44704 -0.51459,8.01558 -2.46027,4.11292 -1.88547,-3.78184 -5.16634,-3.84121 -5.03213,-0.091 l 0.10138,2.83202 -2.68192,-2.51952 c -1.47507,-1.38579 -3.27146,-2.51958 -3.992,-2.51958 -1.38421,0 -7.86215,-4.73195 -15.79375,-11.5369 -5.30253,-4.54933 -13.0661,-19.43884 -17.30095,-33.18099 -1.42492,-4.62391 -3.73356,-10.65711 -5.1303,-13.40711 -4.88982,-9.62742 -16.77565,-24.01894 -22.19582,-26.875 -5.4559,-2.87488 -37.48299,-34.93526 -37.48299,-37.52195 0,-6.31972 -1.23842,-6.36025 -9.81151,-0.32107 -27.09876,19.08929 -32.54578,28.48564 -35.88634,61.90552 -0.69776,6.98052 -1.23206,8.4375 -3.09419,8.4375 -2.9542,0 -4.95796,-9.11099 -4.95796,-22.54359 0,-10.41737 1.45929,-18.49422 4.84581,-26.8205 2.57984,-6.34294 12.94519,-22.33657 18.43953,-28.45201 2.31806,-2.58011 4.21466,-5.15725 4.21466,-5.72698 0,-0.99007 4.39714,-3.97514 18.125,-12.30448 14.47505,-8.78269 23.03968,-12.74819 31.875,-14.75843 5.15625,-1.17316 11.00581,-2.64175 12.99903,-3.26352 1.99322,-0.62177 5.47222,-1.13049 7.73112,-1.13049 2.25891,0 5.54924,-0.5483 7.31185,-1.21845 4.54813,-1.72919 26.1935,0.53434 40.98119,4.28555 26.31039,6.67417 43.07604,16.98374 56.67644,34.85156 10.80655,14.19737 20.55037,37.13718 20.55037,48.38163 0,7.16485 1.87551,10.84696 9.31366,18.28511 5.42451,5.42451 7.01037,7.97574 8.09158,13.01724 2.02444,9.43962 1.59902,18.59117 -1.14532,24.63788 l -2.43517,5.36553 4.02512,7.67881 c 3.75824,7.16968 4.02513,8.51298 4.02513,20.25948 0,13.89847 -2.20681,20.25957 -9.34029,26.92324 -1.94844,1.82009 -4.27524,5.75462 -5.17069,8.74336 -2.0699,6.90871 -11.51802,16.53182 -19.05861,19.4116 -5.52334,2.10937 -12.8991,2.09227 -21.25087,-0.0493 -2.49179,-0.63895 -3.90215,-0.39179 -4.66835,0.8181 -0.78988,1.24725 -1.10328,1.29526 -1.11705,0.17113 z m -166.89414,-82.8125 -4.88237,-5 7.61521,0 c 9.47213,0 14.11897,2.87204 11.76458,7.27125 -2.48623,4.64556 -8.69281,3.6732 -14.49742,-2.27125 z m 65.66336,-3.0241 c -0.63237,-1.66326 -2.14886,-3.58324 -3.36997,-4.2666 -3.9998,-2.2384 6.7452,-3.3795 12.55622,-1.33345 6.29502,2.21646 6.73453,3.69337 1.9155,6.43665 -5.53692,3.15195 -9.70471,2.83787 -11.10175,-0.8366 z m -76.28836,-18.26512 c 0,-0.66593 0.84375,-1.21078 1.875,-1.21078 1.03125,0 1.875,0.22108 1.875,0.49126 0,0.2702 -0.84375,0.81504 -1.875,1.21078 -1.03125,0.39572 -1.875,0.17465 -1.875,-0.49126 z m 56.25,0.21871 c 0,-2.19023 4.8226,-4.11184 9.12026,-3.63405 l 4.00474,0.44522 -3.49262,1.49469 c -5.76789,2.4684 -9.63238,3.14809 -9.63238,1.69414 z"
         id="path3366"
         inkscape:connector-curvature="0"
         sodipodi:nodetypes="sscscssscssscscssssscsccsscsssscscccscssssssssssssssssssssssssssssssssssssssssssssssssssssssssssssssssssssssssssssssssssssssssssssssssssccssssssssscsssssscscsssscccssccssssssssssssssssscccsssssssssssssssssssssssscsssssssccscssssssssssscssscss" />
    </g>
    <g
       id="g3358"
       transform="translate(157.14286,-142.85715)"
       inkscape:export-xdpi="300"
       inkscape:export-ydpi="300">
      <path
         style="fill:#c6a252"
         d="m 21.428562,649.48721 c 0,-8.34722 0.527508,-13.40251 1.5,-14.375 0.825,-0.825 4.621875,-1.50703 8.4375,-1.5156 6.86972,-0.0155 7.022989,-0.0985 15.6875,-8.50509 5.299635,-5.14185 12.430604,-10.43446 18.083876,-13.4219 5.133633,-2.71282 11.643613,-7.27239 14.466623,-10.13236 5.664152,-5.73832 16.297577,-12.92505 19.123797,-12.92505 2.831332,0 22.794072,-12.30545 28.131742,-17.34099 4.96091,-4.68011 21.35935,-28.12983 23.37066,-33.41999 0.62503,-1.64396 1.95328,-2.98902 2.95164,-2.98902 2.10819,0 6.99666,-5.79145 6.99666,-8.28905 0,-0.93605 -2.7062,-5.50081 -6.01377,-10.14392 -8.55784,-12.01334 -23.02734,-40.26618 -28.65033,-55.94203 -1.72627,-4.8125 -3.95069,-10.33932 -4.94317,-12.28185 -1.61715,-3.16515 -4.45342,-15.77669 -4.26583,-18.96815 1.35826,-23.10869 1.23,-26.89955 -1.14347,-33.79816 -2.15779,-6.27174 -2.29261,-8.2028 -1.10643,-15.8479 1.24887,-8.04919 1.16307,-8.88079 -1.13736,-11.02397 -4.96791,-4.62831 -6.57329,-27.43347 -3.04147,-43.20545 2.14256,-9.56797 12.35336,-27.05149 22.37725,-38.31562 2.29602,-2.58011 4.17458,-5.40339 4.17458,-6.27397 0,-0.87058 3.51563,-3.49417 7.8125,-5.83021 4.29688,-2.33604 10.0625,-5.71745 12.8125,-7.51425 2.75,-1.7968 6.6875,-4.08537 8.75,-5.08572 2.0625,-1.00035 5.15625,-2.79639 6.875,-3.9912 5.2441,-3.64549 31.27431,-9.49781 47.00278,-10.56752 23.91647,-1.62659 58.08823,8.01542 77.24931,21.79691 10.89607,7.83693 20.83129,20.21577 28.87124,35.9723 6.15005,12.05273 8.70707,20.02154 10.00655,31.18476 1.06858,9.17973 1.87812,10.75205 9.4179,18.29183 3.28431,3.28431 6.72091,8.10598 7.63687,10.71482 2.40348,6.84557 2.08564,23.76965 -0.53911,28.7066 -2.06416,3.88251 -2.02473,4.13712 1.93619,12.5 3.57102,7.53967 4.04327,9.77773 4.04327,19.16175 0,12.75946 -2.6456,20.65759 -9.39635,28.05169 -2.54754,2.79032 -5.3605,7.31741 -6.25101,10.0602 -2.31883,7.14192 -13.14669,17.32905 -21.29601,20.03582 -6.00392,1.99418 -7.76013,2.02526 -19.30663,0.34179 -2.12319,-0.30956 -2.46755,0.29076 -2.2847,3.98294 0.18889,3.81417 2.02225,6.07572 14.9466,18.4375 8.10221,7.74953 15.19693,14.09006 15.76603,14.09006 1.09251,0 18.93222,12.9265 28.44707,20.61251 6.24884,5.04775 29.56633,20.55025 32.5,21.60745 1.03125,0.37163 4.48161,2.55542 7.66748,4.85287 3.18585,2.29744 6.40728,4.17717 7.15873,4.17717 0.75145,0 4.53992,3.07384 8.41879,6.83075 4.46165,4.32135 10.66725,8.56905 16.89203,11.5625 l 9.83951,4.73175 0.0113,33.4375 0.0122,33.4375 -210,0 -209.999998,0 0,-12.875 z"
         id="path3362"
         inkscape:connector-curvature="0" />
      <path
         style="fill:#382714"
         d="m 44.556363,659.87103 c -0.895567,-2.82168 1.410741,-6.69156 3.294203,-5.52752 1.514396,0.93595 0.631369,7.12591 -1.098819,7.70264 -0.748571,0.24952 -1.736494,-0.72928 -2.195384,-2.17512 z m 81.517017,1.62289 c -0.32356,-0.55368 -0.60367,-9.16296 -0.62248,-19.13171 -0.0279,-14.7658 0.41321,-19.39918 2.37989,-25 3.99846,-11.38701 6.09623,-19.86291 6.12522,-24.74849 0.03,-5.05955 4.10479,-15.25151 6.09758,-15.25151 0.686,0 2.9823,-3.63544 5.10289,-8.07874 2.12059,-4.44331 5.13798,-9.64644 6.70531,-11.5625 4.65605,-5.69207 10.81677,-16.47587 10.81677,-18.93381 0,-1.25811 1.125,-3.30559 2.5,-4.54995 2.96509,-2.68336 3.23164,-5.4227 0.625,-6.42296 -1.03125,-0.39574 -1.87602,-1.6437 -1.87727,-2.77328 -0.002,-1.72493 1.2033,-1.98572 7.52741,-1.62885 6.36051,0.35893 8.64149,-0.14261 14.68977,-3.22996 3.93805,-2.01019 10.46932,-4.66791 14.51392,-5.90608 4.04461,-1.23814 15.36693,-6.34983 25.16073,-11.3593 13.75899,-7.03763 18.15749,-8.77524 19.34917,-7.64384 1.20692,1.1459 1.36613,0.87996 0.73225,-1.22309 -0.51104,-1.69545 0.1252,-4.23301 1.72376,-6.875 2.5878,-4.27694 3.36971,-5.91159 4.37587,-9.14814 0.31384,-1.00952 2.52655,-2.65275 4.91714,-3.6516 5.33251,-2.22806 10.7375,-10.05472 11.65196,-16.87254 0.37168,-2.77113 1.7298,-5.99229 3.01804,-7.15812 2.8167,-2.54908 3.05361,-6.19179 0.46725,-7.18428 -1.03125,-0.39572 -1.88751,-1.44027 -1.9028,-2.32123 -0.0153,-0.88096 -1.12777,-3.00798 -2.4722,-4.72673 -1.34442,-1.71875 -2.45691,-4.91522 -2.4722,-7.10326 -0.0209,-2.9877 -0.71269,-4.19564 -2.7784,-4.85128 -1.51282,-0.48015 -7.46615,-5.6527 -13.22961,-11.49455 -11.03214,-11.18219 -16.28488,-20.25339 -20.87918,-36.0572 -4.4778,-15.40311 -17.16486,-35.15656 -26.05072,-40.56037 -6.70931,-4.08018 -39.58989,-36.22339 -39.58989,-38.70206 0,-3.26442 -2.26596,-4.30722 -4.76626,-2.19346 -1.15981,0.9805 -4.27543,3.0192 -6.92361,4.53045 -7.096,4.0495 -16.6292,12.42545 -19.85667,17.44623 -1.55565,2.42004 -3.80169,5.88655 -4.99119,7.70336 -2.45537,3.75025 -5.27367,17.2526 -6.61533,31.69379 -0.9329,10.04131 -2.56497,12.62336 -6.11613,9.67616 -0.95554,-0.79303 -2.45035,-6.23434 -3.3218,-12.09182 -1.88615,-12.67785 -0.16617,-27.14598 4.46283,-37.54033 2.91092,-6.53644 11.75088,-19.84581 20.61558,-31.03867 4.65011,-5.87137 19.89659,-16.501 31.26258,-21.79582 2.40625,-1.12095 5.78403,-2.9874 7.50618,-4.14767 3.66332,-2.46813 13.96771,-5.18313 33.11882,-8.72613 12.31185,-2.27773 15.15828,-2.39427 27.21438,-1.11425 14.58058,1.54806 33.00296,6.00115 41.32173,9.98838 2.86764,1.37447 6.89438,3.12755 8.94832,3.89572 8.89551,3.32694 23.16106,16.2156 31.80227,28.73278 9.68498,14.0291 17.5374,33.17548 17.64316,43.01895 0.0877,8.16587 2.8886,13.999 9.63372,20.06344 5.4421,4.89292 6.51201,6.68085 8.33088,13.92186 2.29773,9.14725 1.84705,16.86082 -1.43795,24.61159 -1.9827,4.67806 -1.9533,4.85186 2.22,13.125 3.79803,7.52922 4.23374,9.4676 4.27293,19.00916 0.05,12.16311 -2.73646,19.97426 -9.80984,27.5 -2.26161,2.40625 -5.08689,7.03119 -6.27839,10.27765 -2.88806,7.86906 -12.41141,16.44057 -21.42196,19.2809 -6.19471,1.95271 -7.30312,1.96679 -13.74259,0.17445 -6.98551,-1.94431 -7.008,-1.94167 -8.33801,0.97739 -2.2782,5.00012 0.13815,8.87835 13.9656,22.41461 0.70229,0.6875 2.73851,3.07812 4.52494,5.3125 1.78642,2.23437 4.05945,4.0625 5.05116,4.0625 0.99171,0 2.129,0.84926 2.52731,1.88724 0.39832,1.03798 5.30254,4.99732 10.89828,8.79853 18.2993,12.43083 26.99456,19.78539 25.34381,21.43614 -0.41786,0.41786 -1.94459,-0.74655 -3.39272,-2.58756 -2.17219,-2.76149 -11.08648,-7.88845 -11.71585,-6.73826 -0.099,0.1809 -0.84432,1.87578 -1.65628,3.76641 -0.81196,1.89062 -1.92295,3.4375 -2.46885,3.4375 -0.98952,0 -4.4281,-6.14275 -5.7832,-10.33126 -0.77204,-2.38629 -5.82267,-4.79757 -10.68895,-5.10312 -2.47876,-0.15563 -3.78359,-1.80765 -7.10814,-8.99942 -4.19158,-9.06742 -9.14392,-13.65304 -11.83673,-10.96023 -0.90728,0.90728 0.24422,3.09598 3.77526,7.17577 7.24427,8.37011 6.69596,15.02298 -1.17431,14.24848 -5.26174,-0.51778 -7.27308,-3.50542 -5.51093,-8.18592 1.58809,-4.21815 -0.0475,-11.5943 -2.57101,-11.5943 -2.52001,0 -2.94783,1.04427 -5.69576,13.90314 -2.71264,12.69363 -5.03745,17.34686 -8.66673,17.34686 -2.33714,0 -9.92475,10.46037 -19.94761,27.5 -7.08524,12.04543 -36.55966,41.50721 -48.85294,48.83198 l -9.375,5.58594 0.43578,10.60918 c 0.52522,12.78688 -1.77747,26.2229 -4.49413,26.2229 -1.37734,0 -1.66207,-0.88941 -1.1005,-3.4375 0.41668,-1.89063 1.3747,-7.9375 2.12894,-13.4375 1.6396,-11.95614 0.40211,-16.875 -4.24541,-16.875 -4.44849,0 -6.74695,3.42306 -10.9913,16.36914 -5.18114,15.80348 -5.84652,17.38086 -7.33158,17.38086 -0.70224,0 -1.2768,-1.01214 -1.2768,-2.2492 0,-4.34241 7.09078,-24.69623 10.93696,-31.39413 l 3.88662,-6.76832 -3.09813,-8.23168 c -1.70396,-4.52742 -3.81657,-9.35667 -4.69467,-10.73167 -2.43149,-3.8074 -10.78078,-26.05675 -10.78078,-28.72885 0,-3.88535 -5.11912,-17.40731 -7.21664,-19.06246 -1.54828,-1.22176 -2.34292,-1.22176 -3.83276,0 -3.56306,2.92195 -12.35242,17.80779 -14.56425,24.66631 -1.21944,3.78125 -2.66106,7.44194 -3.20362,8.13485 -0.98265,1.25495 -2.90529,6.2972 -7.38405,19.36515 -1.29594,3.78125 -3.28139,9.38424 -4.41212,12.45108 -1.93299,5.24278 -4.22303,21.61458 -4.98997,35.67392 -0.24096,4.4172 -0.90142,6.36194 -2.25222,6.63171 -1.0512,0.20994 -2.176,-0.0714 -2.49955,-0.625 z m 92.12797,-46.17406 c 6.54161,-4.29028 34.63661,-33.19839 38.44647,-39.55919 1.59817,-2.66821 4.0682,-6.35252 5.48899,-8.18737 5.26708,-6.80206 14.42159,-24.18924 18.12585,-34.42648 3.99736,-11.04723 4.00511,-11.4624 0.48378,-25.93291 -0.67685,-2.78142 -0.30978,-3.39546 2.44278,-4.08631 5.84155,-1.46613 2.84884,-8.26539 -3.63803,-8.26539 -2.474,0 -3.20102,-0.55048 -2.88902,-2.1875 0.22932,-1.20313 1.63597,-2.3619 3.12589,-2.57504 1.48993,-0.21315 3.38118,-1.19752 4.20278,-2.1875 1.2431,-1.49783 0.87122,-1.79996 -2.21549,-1.79996 -2.12183,0 -4.6776,-1.06994 -5.97179,-2.5 -2.91194,-3.21765 -4.123,-3.1518 -5.74725,0.3125 -1.27446,2.71825 -7.49281,7.22455 -15.72565,11.39603 -2.1851,1.10714 -8.22641,5.95691 -13.42515,10.77724 -5.19872,4.82033 -9.87967,8.78397 -10.40209,8.80809 -0.52242,0.0241 -4.80495,3.60879 -9.51672,7.9659 -5.3616,4.95803 -10.46688,8.49129 -13.64514,9.44353 -8.19462,2.45516 -13.21289,7.23376 -14.14849,13.47276 -0.44163,2.94507 -1.39756,5.72216 -2.12428,6.1713 -0.72672,0.44914 -3.16104,-1.37473 -5.40962,-4.05303 -3.45518,-4.11553 -4.21795,-4.5318 -4.92548,-2.68798 -1.03383,2.69411 1.28791,19.43275 4.52566,32.62789 1.33057,5.42257 2.41921,11.25848 2.41921,12.96868 0,3.46659 5.18859,15.88606 9.6798,23.16971 4.83634,7.84333 10.37818,8.19829 20.84299,1.33503 z m -46.03441,-67.63595 c -0.86688,-0.86686 -3.23838,0.89444 -3.23838,2.40512 0,0.82888 0.71723,0.73404 1.90521,-0.2519 1.04787,-0.86964 1.64779,-1.83859 1.33317,-2.15322 z m 135.51162,-19.6967 c 0,-1.03125 -0.22107,-1.875 -0.49126,-1.875 -0.2702,0 -0.81504,0.84375 -1.21078,1.875 -0.39572,1.03125 -0.17465,1.875 0.49127,1.875 0.66592,0 1.21077,-0.84375 1.21077,-1.875 z m -33.75,-53.41285 c 0,-1.45216 0.94939,-3.68935 2.10974,-4.97154 2.0336,-2.2471 2.15766,-2.18297 3.4375,1.77658 0.73027,2.2593 1.89026,4.10781 2.57776,4.10781 1.2862,0 3.15251,-10.18082 2.06556,-11.26778 -0.33397,-0.33397 -2.4905,-0.60722 -4.79227,-0.60722 -3.38015,0 -4.66141,0.78131 -6.66199,4.0625 -2.46159,4.0373 -3.21606,8.54107 -1.68695,10.07019 1.34443,1.34441 2.95065,-0.38152 2.95065,-3.17054 z m 9.71354,-16.97778 c 0.27214,-0.81641 -0.39583,-1.48437 -1.48438,-1.48437 -1.08853,0 -1.97916,0.89062 -1.97916,1.97916 0,2.20741 2.69095,1.82299 3.46354,-0.49479 z m -0.13333,-7.02535 c -0.90583,-2.36057 -4.58021,-2.62853 -4.58021,-0.33402 0,0.89375 0.675,2.3 1.5,3.125 1.90355,1.90355 4.11333,-0.0987 3.08021,-2.79098 z m 0.41979,-4.45902 c 0,-0.6875 -0.5957,-1.25 -1.32377,-1.25 -0.72808,0 -0.97613,0.5625 -0.55123,1.25 0.4249,0.6875 1.0206,1.25 1.32378,1.25 0.30317,0 0.55122,-0.5625 0.55122,-1.25 z m 6.15928,-13.29358 c 1.4249,-1.81146 2.59072,-3.78021 2.59072,-4.375 0,-1.81218 -2.75769,-1.20683 -4.33615,0.95184 -1.18324,1.61817 -2.01524,1.75044 -4.07535,0.6479 -2.04567,-1.09481 -2.73766,-0.99692 -3.29931,0.46673 -2.24216,5.84296 4.91487,7.6546 9.12009,2.30853 z m -3.43012,-8.22726 c -0.89695,-0.89695 -1.47916,-0.97075 -1.47916,-0.1875 0,0.71043 0.375,1.66668 0.83334,2.125 0.45832,0.45834 1.12395,0.54271 1.47916,0.1875 0.35521,-0.3552 -0.0197,-1.31145 -0.83334,-2.125 z m 8.87793,-12.20969 c 0.42991,-1.64397 0.048,-2.51947 -1.09911,-2.51947 -1.05265,0 -1.75798,1.28339 -1.75798,3.19878 0,3.60334 1.85233,3.16294 2.85709,-0.67931 z m 2.14291,-16.26947 c 0,-0.6875 -0.5957,-1.25 -1.32377,-1.25 -0.72808,0 -0.97613,0.5625 -0.55123,1.25 0.4249,0.6875 1.0206,1.25 1.32378,1.25 0.30317,0 0.55122,-0.5625 0.55122,-1.25 z m 50.93475,265.26702 -3.44024,-0.43361 3.52753,-5.2292 c 1.94014,-2.87607 4.22525,-6.97439 5.07804,-9.10737 0.85278,-2.13299 4.93662,-7.47674 9.07521,-11.875 8.2848,-8.80464 14.13049,-18.86155 13.14777,-22.61943 -0.94698,-3.6213 1.46639,-9.32692 4.89547,-11.57375 3.12838,-2.0498 3.91258,-6.09964 1.8215,-9.40671 -0.98247,-1.55376 -1.74749,-1.3014 -4.73677,1.5625 -6.98795,6.69489 -11.23861,2.43887 -9.05642,-9.0678 0.6507,-3.43108 0.7245,-7.47797 0.16402,-8.9931 -0.9937,-2.68623 -1.04008,-2.67102 -1.86377,0.61084 -0.86383,3.44172 -2.54279,4.34737 -3.92209,2.11561 -1.0974,-1.77562 -3.27371,-1.55129 -3.03169,0.3125 0.43417,3.34346 -0.17331,4.6875 -2.11865,4.6875 -3.10506,0 -12.88183,-6.6339 -12.8954,-8.75 -0.0189,-2.9419 6.45289,-9.79841 10.05865,-10.6567 2.88119,-0.68583 3.3528,-0.32725 4.03125,3.06501 0.9425,4.71249 2.37694,4.8587 5.21239,0.53126 1.69974,-2.59413 1.99598,-4.78322 1.36906,-10.11721 l -0.8,-6.80678 4.71219,2.87172 c 2.59171,1.57944 7.30371,4.67351 10.47113,6.8757 3.16741,2.20219 7.98628,5.1403 10.70862,6.52914 2.72233,1.38882 5.74785,3.48686 6.72336,4.66229 0.97553,1.17542 4.03165,3.13639 6.79139,4.35772 2.75974,1.22131 7.47764,4.51782 10.48421,7.32559 7.079,6.61087 17.86682,12.74985 22.64353,12.88566 l 3.76496,0.107 0,10.361 c 0,5.69855 -0.5625,10.70865 -1.25,11.13355 -0.6875,0.4249 -1.24139,1.44247 -1.23086,2.26127 0.0113,0.89452 0.50279,0.74034 1.23086,-0.38627 0.86883,-1.34442 1.21714,-0.0475 1.23086,4.58334 0.0125,4.01277 -0.57252,6.69707 -1.54336,7.08881 -1.25,0.50439 -1.25,0.65021 0,0.72916 1.1614,0.0734 1.5625,4.10965 1.5625,15.72369 l 0,15.625 -6.72195,0 c -7.86692,0 -11.01079,-2.3387 -8.51535,-6.33454 2.41636,-3.8692 1.78728,-4.91296 -2.45029,-4.06545 -3.02393,0.60479 -4.33916,0.23831 -5.66832,-1.5794 -0.9519,-1.30181 -2.69561,-2.37339 -3.87491,-2.38127 -1.48363,-0.01 -2.05058,-0.89133 -1.84035,-2.86108 0.21456,-2.01036 -0.57608,-3.18127 -2.69108,-3.9854 -1.6472,-0.62626 -3.36399,-1.73585 -3.8151,-2.46576 -0.4511,-0.72985 -1.95111,-1.32705 -3.33336,-1.32705 -3.68146,0 -2.6811,-5.48769 1.09821,-6.02444 2.03564,-0.28911 2.8125,-1.2386 2.8125,-3.4375 0,-2.20472 0.68575,-3.03806 2.5,-3.03806 1.375,0 2.51871,0.42187 2.54159,0.9375 0.0229,0.51562 1.10067,2.20715 2.3951,3.75894 1.96536,2.3561 2.88624,2.61891 5.58342,1.59343 1.77644,-0.6754 3.22989,-2.05247 3.22989,-3.06016 0,-2.54208 2.43224,-3.79747 4.10891,-2.1208 2.30614,2.30614 3.31688,1.62717 5.42653,-3.64537 1.10836,-2.77006 3.07255,-5.60235 4.36487,-6.29399 2.68962,-1.43942 3.08505,-5.96701 0.78719,-9.01277 -2.44226,-3.23717 -15.63781,-4.86259 -20.23526,-2.49259 -2.51935,1.29874 -4.28585,1.5146 -5.625,0.68735 -2.37094,-1.46464 -5.07724,-0.7132 -5.07724,1.40974 0,0.85411 -1.40625,2.87403 -3.125,4.48872 -1.71875,1.61469 -3.125,3.62593 -3.125,4.46942 0,1.28039 -7.66266,6.78058 -9.44645,6.78058 -1.45761,0 -0.2076,-3.17737 3.19645,-8.125 2.0625,-2.99774 3.7521,-6.19284 3.75468,-7.10023 0.002,-0.90737 1.12756,-3.4915 2.5,-5.74248 2.49837,-4.09773 3.38881,-10.28229 1.4804,-10.28229 -0.55822,0 -2.36527,1.82812 -4.01567,4.0625 -1.6504,2.23437 -5.19753,6.44739 -7.88253,9.36226 -4.85377,5.26934 -4.88304,5.363 -5.0985,16.31574 -0.17983,9.14056 -0.68674,11.67605 -2.97755,14.8932 -1.51845,2.13247 -2.76083,4.45036 -2.76083,5.15086 0,2.04392 -6.31051,8.96544 -8.174,8.96544 -0.93597,0 -2.22557,-0.93597 -2.86576,-2.07994 -1.03764,-1.85415 -1.51933,-1.72461 -4.43711,1.19318 -1.80023,1.80022 -3.27313,4.47635 -3.27313,5.94697 0,1.62259 -0.98291,2.93088 -2.5,3.3276 -1.375,0.35958 -2.5,1.09048 -2.5,1.62424 0,1.40365 -2.61436,2.00295 -6.56525,1.50497 z m 74.17736,-18.5271 c 1.12747,-1.35851 1.02184,-1.73992 -0.48182,-1.73992 -3.21376,0 -5.88029,1.42466 -5.88029,3.14171 0,2.00662 4.32409,1.05388 6.36211,-1.40179 z m 9.88789,-7.34148 c 0,-1.98643 -6.5724,-3.39931 -7.6561,-1.64585 -0.43311,0.70079 -0.52206,2.28911 -0.19766,3.52961 0.49986,1.91151 1.14367,2.06239 4.22179,0.98935 1.99758,-0.69636 3.63197,-1.98926 3.63197,-2.87311 z m -28.75,-48.84721 c 0,-1.07183 -0.5625,-1.60113 -1.25,-1.17623 -0.6875,0.4249 -1.25,1.30185 -1.25,1.94877 0,0.64693 0.5625,1.17623 1.25,1.17623 0.6875,0 1.25,-0.87695 1.25,-1.94877 z m -35.81676,74.91117 c -0.93703,-0.38361 -0.49943,-1.62155 1.25,-3.53614 1.48047,-1.62025 4.37926,-5.22169 6.44176,-8.0032 4.20368,-5.66912 5.625,-6.34456 5.625,-2.67306 0,1.375 0.49693,2.5 1.10428,2.5 2.047,0 2.50426,6.81058 0.65042,9.6875 -1.47821,2.29399 -2.90165,2.79431 -7.72101,2.71381 -3.24978,-0.0543 -6.55748,-0.36428 -7.35045,-0.68891 z m 42.06676,-1.01363 c 0,-0.99067 0.5625,-2.14887 1.25,-2.57377 0.6875,-0.4249 1.25,0.38565 1.25,1.80123 0,1.41557 -0.5625,2.57377 -1.25,2.57377 -0.6875,0 -1.25,-0.81055 -1.25,-1.80123 z m -112.5,-8.72153 c 0,-5.57615 1.08208,-8.22724 3.35805,-8.22724 1.79109,0 1.67548,2.9035 -0.4106,10.3125 -1.05334,3.74104 -2.94745,2.40099 -2.94745,-2.08526 z M 21.838737,644.23721 c 0.0055,-4.8125 0.231478,-6.62807 0.502073,-4.03463 0.270594,2.59347 0.266057,6.53097 -0.01008,8.75 -0.27614,2.21906 -0.497535,0.0971 -0.491993,-4.71537 z m 318.339823,-3.78922 c 0,-1.74034 0.86801,-3.49733 1.92891,-3.90443 2.77688,-1.06559 3.31603,0.0113 1.887,3.77029 -1.59348,4.1912 -3.81591,4.26931 -3.81591,0.13414 z m 45.543,-3.21847 c -0.47,-0.76047 0.90305,-3.14028 3.05123,-5.28846 3.4479,-3.4479 3.90577,-3.61149 3.90577,-1.39545 0,2.78505 -3.27182,8.0666 -4.99711,8.0666 -0.60794,0 -1.48989,-0.62221 -1.95989,-1.38269 z m -67.59096,-2.99231 c -0.39574,-1.03125 -1.78433,-1.875 -3.08578,-1.875 -3.07585,0 -3.01008,-2.98041 0.16038,-7.26869 2.2305,-3.01692 2.5828,-5.7579 3.0059,-23.38689 0.40595,-16.91438 0.87945,-20.8564 3.09506,-25.76721 1.70756,-3.78475 2.35989,-7.07729 1.87876,-9.48289 -0.49918,-2.49596 -0.0947,-4.32735 1.25332,-5.67542 1.09467,-1.09469 1.99032,-3.42869 1.99032,-5.18668 0,-5.40062 2.92548,-14.48222 4.6652,-14.48222 0.90568,0 2.19026,1.26562 2.85465,2.8125 0.66439,1.54687 2.41124,4.31041 3.88189,6.14119 3.61034,4.49442 2.43744,10.40345 -1.85135,9.32702 -3.25593,-0.81719 -8.30039,2.18875 -8.30039,4.9461 0,1.00929 1.40625,2.36973 3.125,3.02319 2.23516,0.84981 3.125,2.12009 3.125,4.46109 0,2.22171 0.80299,3.48295 2.5,3.92672 1.375,0.35958 2.5,1.15067 2.5,1.75798 0,0.60731 1.4239,1.10421 3.16423,1.10421 4.6172,0 5.05548,2.94545 1.87971,12.63244 -2.12595,6.48474 -3.39085,8.61756 -5.11078,8.61756 -1.25708,0 -2.7378,0.70312 -3.29047,1.5625 -1.32921,2.06688 -5.27344,18.2777 -5.3402,21.9483 -0.0612,3.36586 -7.18064,12.7392 -9.67593,12.7392 -0.93776,0 -2.0288,-0.84375 -2.42452,-1.875 z m 18.29796,-46.77276 c 0,-2.16289 -1.51727,-5.10224 -2.63374,-5.10224 -1.29535,0 -1.51397,4.18563 -0.28292,5.41666 1.2067,1.20672 2.91666,1.02236 2.91666,-0.31442 z m 10.92714,47.09305 c -0.77076,-2.25639 2.90455,-12.63611 4.89342,-13.8199 0.92369,-0.54979 1.67944,-1.98915 1.67944,-3.19859 0,-5.33101 6.55718,-8.93833 11.46913,-6.30952 2.89933,1.55167 2.10076,5.45527 -1.91577,9.36461 -1.4731,1.4338 -5.0248,5.17016 -7.89266,8.30305 -6.26665,6.84572 -7.5316,7.71535 -8.23356,5.66035 z m 72.86261,-9.85474 c -0.0219,-1.11894 0.804,-2.73469 1.83525,-3.59055 2.40319,-1.99446 2.42848,0.0404 0.0397,3.19859 -1.5418,2.03845 -1.8416,2.10111 -1.875,0.39196 z m -131.28975,-1.01678 c 0,-0.64692 0.5625,-1.52387 1.25,-1.94877 0.6875,-0.4249 1.25,0.10437 1.25,1.17623 0,1.07182 -0.5625,1.94877 -1.25,1.94877 -0.6875,0 -1.25,-0.5293 -1.25,-1.17623 z m -4.59585,-21.63627 c 0.37134,-1.54688 1.07086,-5.0625 1.55451,-7.8125 0.48364,-2.75 1.93179,-7.09382 3.21812,-9.65294 1.28632,-2.55912 2.90682,-9.02787 3.60111,-14.375 0.6943,-5.34714 1.7941,-11.97206 2.44401,-14.72206 0.64991,-2.75 1.5293,-6.82813 1.9542,-9.0625 0.4249,-2.23438 1.3408,-4.0625 2.03535,-4.0625 2.30741,0 5.8547,5.50453 4.82708,7.49046 -0.53634,1.0365 -1.36739,5.11891 -1.84679,9.07204 -0.81468,6.71782 -0.70239,7.1875 1.71831,7.1875 3.36226,0 3.34358,3.00591 -0.0581,9.35275 -1.45644,2.71741 -3.46775,7.70089 -4.46958,11.07441 -1.34862,4.54132 -2.18637,5.76881 -3.22692,4.72826 -2.23328,-2.23327 -2.67699,-1.82606 -6.58313,6.04159 -3.71839,7.48948 -6.42379,9.97101 -5.16815,4.74049 z m 57.1356,-43.125 c 0.0219,-0.51563 0.86563,-2.02939 1.875,-3.36391 1.00939,-1.33453 1.83525,-3.67915 1.83525,-5.21026 0,-6.28403 1.16404,-6.92209 6.05984,-3.32169 2.51084,1.84647 4.78595,3.50702 5.05579,3.69008 1.32211,0.89697 -3.10618,4.24299 -5.38313,4.0675 -4.60645,-0.35501 -5.54844,0.0266 -6.3575,2.57578 -0.74836,2.35786 -3.171,3.58479 -3.08525,1.5625 z M 147.68786,480.73602 c 8.78444,3.12149 29.09296,-0.92122 33.65,-1.25971 1.46876,-0.1091 2.5907,1.17437 2.5907,1.78169 0,1.4327 -30.12456,6.0068 -36.59784,1.62094 -5.06993,-3.43504 -0.32522,-2.38539 0.35714,-2.14292 z m 4.9907,-22.77975 c 0,-2.22879 4.97196,-4.38783 9.76888,-4.2421 l 3.35612,0.102 -3.96681,1.73758 c -2.18175,0.95566 -4.32433,2.31602 -4.76128,3.02302 -1.21957,1.9733 -4.39691,1.52491 -4.39691,-0.6205 z m -22.92537,-55.04376 c -2.73233,-3.4244 -4.31639,-4.36042 -6.875,-4.06246 -2.63982,0.30741 -3.40685,-0.19174 -3.7238,-2.42333 -0.44603,-3.14036 3.52085,-5.31451 9.69665,-5.31451 4.48888,0 13.92945,4.15954 16.90635,7.44899 2.24498,2.48067 2.21988,2.6125 -1.07961,5.67036 -5.08842,4.71579 -10.49031,4.23836 -14.92459,-1.31905 z m 64.56198,-2.1128 c -0.556,-0.85938 -1.59943,-2.6875 -2.31872,-4.0625 -0.83003,-1.58668 -2.54265,-2.482 -4.68785,-2.45072 -6.44425,0.094 -3.21855,-3.35608 5.36996,-5.74342 8.07808,-2.24545 11.23646,-1.6844 15.88581,2.82193 4.70937,4.56448 5.27384,7.24721 1.5249,7.24721 -1.4241,0 -3.43303,0.84375 -4.46428,1.875 -2.27192,2.27191 -9.90562,2.48284 -11.30982,0.3125 z m -24.13661,-10.32946 c 0,-0.35308 0.67816,-1.72786 1.50701,-3.05508 1.24652,-1.99598 1.08634,-2.87795 -0.92663,-5.10227 -2.41877,-2.6727 -2.41598,-2.70348 0.45717,-5.03001 3.42963,-2.77714 9.08408,-4.00427 15.89245,-3.44899 6.32434,0.51581 6.29375,2.4513 -0.0716,4.53321 -6.61857,2.16472 -8.12808,3.78726 -5.10783,5.4903 2.17468,1.22623 1.96326,1.58905 -2.5,4.29074 -4.45631,2.69749 -9.25055,3.90095 -9.25055,2.3221 z m 15.9375,-5.18589 c 0.85938,-0.34676 2.26563,-0.34676 3.125,0 0.85938,0.34676 0.15625,0.63049 -1.5625,0.63049 -1.71875,0 -2.42187,-0.28373 -1.5625,-0.63049 z m -56.5625,-4.2967 c -2.0625,-0.63781 -5.91185,-0.81241 -8.55411,-0.38799 -4.22097,0.67802 -4.74634,0.49043 -4.32822,-1.54538 0.39789,-1.93729 1.49265,-2.26349 6.67911,-1.99014 6.78182,0.35742 13.88251,2.31561 15.00958,4.13926 0.89124,1.44205 -3.81869,1.32666 -8.80636,-0.21575 z"
         id="path3360"
         inkscape:connector-curvature="0"
         sodipodi:nodetypes="sssscssssssssccsssssssssssscssssssssssssssssssssssssssssssssssssssssscsssssssssssssscssssssssscssssssssssscssssssscssssssscsssssssssscsscsscsssssssssssssssssssssssssssssscscscsssssssssscssssssssssssscsssscssscssccsscscscscsssscsscsssscssssscsssssssscssssssssssscssssssssssssssssssssssssssssssssssssssscsssssscsssssssssssssscssssssscsscsssssssscssccssssscssssssssssssscccssscsscssssssccssssssssssscssssssccssssssscssssssssss" />
    </g>
  </g>
</svg>
